<svg xmlns="http://www.w3.org/2000/svg" width="43.679" height="43.07" viewBox="0 0 43.679 43.07">
  <g id="Grupo_956" data-name="Grupo 956" transform="translate(270.939 -887.716)">
    <path id="Caminho_611" data-name="Caminho 611" d="M315.05,233.49a3.339,3.339,0,1,1,3.339-3.339A3.343,3.343,0,0,1,315.05,233.49Zm0-5.414a2.076,2.076,0,1,0,2.076,2.076A2.078,2.078,0,0,0,315.05,228.076Z" transform="translate(-563.97 678.05)" fill="#00a3ff"/>
    <path id="Caminho_612" data-name="Caminho 612" d="M301.88,300.092a.632.632,0,0,1-.632-.632v-3.778a1.839,1.839,0,0,0-1.805-1.985h-2.888a2.136,2.136,0,0,0-2.166,1.985v3.7a.632.632,0,0,1-1.263,0v-3.7a3.387,3.387,0,0,1,3.429-3.249h2.888a3.093,3.093,0,0,1,3.069,3.249v3.778a.632.632,0,0,1-.632.632Z" transform="translate(-546.918 617.843)" fill="#00a3ff"/>
    <path id="Caminho_613" data-name="Caminho 613" d="M229.75,60.076a11.023,11.023,0,0,1-11.01-11.01v-18.5a.632.632,0,0,1,.632-.632h16.876a.631.631,0,0,1,.447.185L240.575,34a.631.631,0,0,1,.185.447v14.62a11.022,11.022,0,0,1-11.01,11.01ZM220,31.2V49.066a9.746,9.746,0,1,0,19.492,0V34.708L235.986,31.2Z" transform="translate(-478.67 858.684)" fill="#00a3ff"/>
    <path id="Caminho_614" data-name="Caminho 614" d="M268.359,74.955h-5.235a.632.632,0,0,1,0-1.263h5.235a.632.632,0,0,1,0,1.263Z" transform="translate(-518.812 818.537)" fill="#00a3ff"/>
    <path id="Caminho_615" data-name="Caminho 615" d="M271.97,107.771h-8.844a.632.632,0,0,1,0-1.263h8.844a.632.632,0,0,1,0,1.263Z" transform="translate(-518.813 788.428)" fill="#00a3ff"/>
    <path id="Caminho_616" data-name="Caminho 616" d="M344.9,140.581h-7.4a.632.632,0,1,1,0-1.263h7.4a.632.632,0,0,1,0,1.263Z" transform="translate(-587.053 758.326)" fill="#00a3ff"/>
    <path id="Caminho_617" data-name="Caminho 617" d="M276.662,173.391H263.125a.632.632,0,0,1,0-1.263h13.537a.632.632,0,1,1,0,1.263Z" transform="translate(-518.813 728.223)" fill="#00a3ff"/>
    <path id="Caminho_618" data-name="Caminho 618" d="M360.28,74.955h-.9a.632.632,0,0,1,0-1.263h.9a.632.632,0,1,1,0,1.263Z" transform="translate(-607.124 818.537)" fill="#00a3ff"/>
    <path id="Caminho_619" data-name="Caminho 619" d="M119.334,262.772h-3.926a.632.632,0,0,1-.617-.494l-1.222-5.473a15.547,15.547,0,0,1-4.215-1.747l-4.746,3a.631.631,0,0,1-.784-.087l-2.774-2.774a.632.632,0,0,1-.087-.785l3-4.745a15.417,15.417,0,0,1-1.746-4.215l-5.473-1.222a.633.633,0,0,1-.494-.617v-3.926a.632.632,0,0,1,.494-.617l5.859-1.309a.638.638,0,0,1,.138-.015h4.068a.632.632,0,1,1,0,1.263h-4l-5.3,1.183v2.914l5.365,1.2a.632.632,0,0,1,.479.48,14.168,14.168,0,0,0,1.884,4.548.632.632,0,0,1,0,.677l-2.946,4.652,2.059,2.059,4.652-2.945a.632.632,0,0,1,.676,0,14.3,14.3,0,0,0,4.549,1.885.632.632,0,0,1,.48.479l1.2,5.365h2.914l1.2-5.365a.632.632,0,0,1,.48-.479,14.168,14.168,0,0,0,4.548-1.884.632.632,0,0,1,.677,0l4.652,2.945,2.059-2.059-2.945-4.652a.632.632,0,0,1,0-.676,14.3,14.3,0,0,0,1.885-4.549.632.632,0,0,1,.479-.48l5.365-1.2V240.2l-5.3-1.183h-3.456a.632.632,0,0,1,0-1.263H132a.636.636,0,0,1,.138.015l5.859,1.309a.632.632,0,0,1,.494.617v3.926a.632.632,0,0,1-.494.617l-5.473,1.222a15.552,15.552,0,0,1-1.747,4.215l3,4.746a.631.631,0,0,1-.087.785l-2.774,2.774a.632.632,0,0,1-.784.087l-4.745-3a15.421,15.421,0,0,1-4.215,1.746l-1.222,5.473a.632.632,0,0,1-.617.494Z" transform="translate(-366.289 668.015)" fill="#00a3ff"/>
    <path id="Caminho_620" data-name="Caminho 620" d="M359.386,350.191a.632.632,0,0,1-.632-.632v-1.8a.632.632,0,0,1,1.263,0v1.8A.632.632,0,0,1,359.386,350.191Z" transform="translate(-607.131 567.667)" fill="#00a3ff"/>
    <path id="Caminho_621" data-name="Caminho 621" d="M326.566,350.191a.632.632,0,0,1-.632-.632v-1.8a.632.632,0,1,1,1.263,0v1.8A.632.632,0,0,1,326.566,350.191Z" transform="translate(-577.019 567.667)" fill="#00a3ff"/>
    <path id="Caminho_622" data-name="Caminho 622" d="M428.6,522.756a.632.632,0,1,1,.632.632A.632.632,0,0,1,428.6,522.756Zm-2.527,0a.632.632,0,1,1,.632.632A.632.632,0,0,1,426.074,522.756Zm-2.527,0a.632.632,0,1,1,.632.632A.632.632,0,0,1,423.548,522.756Zm-2.527,0a.632.632,0,1,1,.632.632A.632.632,0,0,1,421.021,522.756Zm-2.527,0a.632.632,0,1,1,.632.632A.632.632,0,0,1,418.494,522.756Zm-2.527,0a.632.632,0,1,1,.632.632A.632.632,0,0,1,415.967,522.756Zm-2.527,0a.632.632,0,1,1,.632.632A.632.632,0,0,1,413.44,522.756Z" transform="translate(-657.305 407.105)" fill="#00a3ff"/>
    <path id="Caminho_623" data-name="Caminho 623" d="M549.83,490.571h-4.512a.632.632,0,0,1,0-1.263h4.512a.632.632,0,0,1,0,1.263Z" transform="translate(-777.722 437.213)" fill="#00a3ff"/>
    <path id="Caminho_624" data-name="Caminho 624" d="M111.411,522.756a.632.632,0,1,1,.632.632A.632.632,0,0,1,111.411,522.756Zm-2.527,0a.632.632,0,1,1,.632.632A.632.632,0,0,1,108.884,522.756Zm-2.527,0a.632.632,0,1,1,.632.632A.632.632,0,0,1,106.358,522.756Zm-2.527,0a.632.632,0,1,1,.632.632A.632.632,0,0,1,103.831,522.756Zm-2.527,0a.632.632,0,1,1,.632.632A.632.632,0,0,1,101.3,522.756Zm-2.527,0a.632.632,0,1,1,.632.632A.632.632,0,0,1,98.777,522.756Zm-2.527,0a.632.632,0,1,1,.632.632A.632.632,0,0,1,96.25,522.756Z" transform="translate(-366.286 407.105)" fill="#00a3ff"/>
    <path id="Caminho_625" data-name="Caminho 625" d="M101.39,490.571H96.878a.632.632,0,1,1,0-1.263h4.512a.632.632,0,1,1,0,1.263Z" transform="translate(-366.283 437.213)" fill="#00a3ff"/>
    <path id="Caminho_626" data-name="Caminho 626" d="M523.445,72.135a.632.632,0,0,1-.632-.632V63.381a.632.632,0,1,1,1.263,0V71.5A.632.632,0,0,1,523.445,72.135Z" transform="translate(-757.654 828.576)" fill="#00a3ff"/>
    <path id="Caminho_627" data-name="Caminho 627" d="M523.445,196.165a.632.632,0,0,1-.632-.632v-.9a.632.632,0,1,1,1.263,0v.9A.632.632,0,0,1,523.445,196.165Z" transform="translate(-757.654 708.155)" fill="#00a3ff"/>
    <path id="Caminho_628" data-name="Caminho 628" d="M505.176,65.819a.631.631,0,0,1-.447-.185l-1.358-1.359-1.358,1.358a.632.632,0,0,1-.893-.893l1.8-1.8a.632.632,0,0,1,.893,0l1.8,1.8a.632.632,0,0,1-.447,1.079Z" transform="translate(-737.58 828.575)" fill="#00a3ff"/>
    <path id="Caminho_629" data-name="Caminho 629" d="M578.135,26.586a.632.632,0,0,1-.632-.632V19.637a.632.632,0,1,1,1.263,0v6.317A.632.632,0,0,1,578.135,26.586Z" transform="translate(-807.832 868.711)" fill="#00a3ff"/>
    <path id="Caminho_630" data-name="Caminho 630" d="M578.135,130.546a.632.632,0,0,1-.632-.632v-.9a.632.632,0,0,1,1.263,0v.9A.632.632,0,0,1,578.135,130.546Z" transform="translate(-807.832 768.361)" fill="#00a3ff"/>
    <path id="Caminho_631" data-name="Caminho 631" d="M559.866,22.069a.631.631,0,0,1-.447-.185l-1.358-1.359L556.7,21.884a.632.632,0,1,1-.893-.893l1.8-1.8a.632.632,0,0,1,.893,0l1.8,1.8a.632.632,0,0,1-.447,1.079Z" transform="translate(-787.758 868.715)" fill="#00a3ff"/>
    <path id="Caminho_632" data-name="Caminho 632" d="M162.506,72.135a.632.632,0,0,1-.632-.632V63.381a.632.632,0,1,1,1.263,0V71.5A.632.632,0,0,1,162.506,72.135Z" transform="translate(-426.496 828.576)" fill="#00a3ff"/>
    <path id="Caminho_633" data-name="Caminho 633" d="M162.506,196.165a.632.632,0,0,1-.632-.632v-.9a.632.632,0,1,1,1.263,0v.9A.632.632,0,0,1,162.506,196.165Z" transform="translate(-426.496 708.155)" fill="#00a3ff"/>
    <path id="Caminho_634" data-name="Caminho 634" d="M144.243,65.819a.631.631,0,0,1-.447-.185l-1.358-1.359-1.358,1.358a.632.632,0,0,1-.893-.893l1.8-1.8a.632.632,0,0,1,.893,0l1.8,1.8a.632.632,0,0,1-.447,1.079Z" transform="translate(-406.428 828.575)" fill="#00a3ff"/>
    <path id="Caminho_635" data-name="Caminho 635" d="M107.816,26.586a.632.632,0,0,1-.632-.632V19.637a.632.632,0,1,1,1.263,0v6.317A.632.632,0,0,1,107.816,26.586Z" transform="translate(-376.318 868.711)" fill="#00a3ff"/>
    <path id="Caminho_636" data-name="Caminho 636" d="M107.816,130.546a.632.632,0,0,1-.632-.632v-.9a.632.632,0,0,1,1.263,0v.9A.632.632,0,0,1,107.816,130.546Z" transform="translate(-376.318 768.361)" fill="#00a3ff"/>
    <path id="Caminho_637" data-name="Caminho 637" d="M89.553,22.069a.631.631,0,0,1-.447-.185l-1.358-1.359L86.39,21.884a.632.632,0,1,1-.893-.893l1.8-1.8a.632.632,0,0,1,.893,0l1.8,1.8a.632.632,0,0,1-.447,1.079Z" transform="translate(-356.251 868.715)" fill="#00a3ff"/>
    <path id="Caminho_638" data-name="Caminho 638" d="M427.608,35.716h-3.7a.632.632,0,0,1-.632-.632V30.572a.632.632,0,1,1,1.263,0v3.881h3.069a.632.632,0,0,1,0,1.263Z" transform="translate(-666.329 858.678)" fill="#00a3ff"/>
  </g>
</svg>
